<?xml version="1.0" encoding="utf-8"?>
<!-- Generator: Adobe Illustrator 24.0.3, SVG Export Plug-In . SVG Version: 6.00 Build 0)  -->
<svg version="1.1" xmlns="http://www.w3.org/2000/svg" xmlns:xlink="http://www.w3.org/1999/xlink" x="0px" y="0px"
	 viewBox="0 0 318.24 368.12" style="enable-background:new 0 0 318.24 368.12;" xml:space="preserve">
<style type="text/css">
	.st0{fill:#238DC1;}
	.st1{fill:#DB6015;}
	.st2{fill:#8DC6E8;}
	.st3{fill:#F3E500;}
	.st4{fill:#FFFFFF;}
</style>
<g id="Capa_1">
	<g>
		<g>
			<path class="st1" d="M163.04,186.3l-15.98,16.12c-1.44,1.45-3.92,0.43-3.92-1.61v-32.24c0-2.05,2.48-3.07,3.92-1.61l15.98,16.12
				C163.92,183.96,163.92,185.4,163.04,186.3z"/>
			<path class="st1" d="M145.45,203.14c-0.3,0-0.61-0.06-0.9-0.18c-0.89-0.37-1.44-1.19-1.44-2.15v-32.24
				c0-0.96,0.55-1.79,1.44-2.15c0.89-0.37,1.86-0.17,2.54,0.51l15.98,16.12c0.9,0.9,0.9,2.38,0,3.28l-15.98,16.12
				C146.63,202.9,146.05,203.14,145.45,203.14z M145.45,166.3c-0.29,0-0.59,0.06-0.87,0.18c-0.86,0.35-1.4,1.15-1.4,2.09v32.24
				c0,0.93,0.54,1.73,1.4,2.08c0.86,0.36,1.8,0.17,2.46-0.5l15.98-16.12c0.87-0.88,0.87-2.3,0-3.17l-15.98-16.12
				C146.6,166.53,146.03,166.3,145.45,166.3z"/>
		</g>
		<g>
			<path class="st0" d="M108.72,110.81v145.36c0,1.26,1.02,2.28,2.28,2.28l96.27,0.07c1.28,0,1.93-1.55,1.03-2.46l-23.82-24.2
				c-0.43-0.44-1.03-0.69-1.65-0.68l-46.86,0.36c-1.27,0.01-2.3-1.02-2.3-2.28v-30.79c0-0.6-0.24-1.18-0.66-1.61l-9.98-10.07
				c-0.88-0.89-0.88-2.33,0-3.22l9.98-10.07c0.42-0.43,0.66-1.01,0.66-1.61v-34.22c0-1.25,1.01-2.27,2.26-2.28L183.1,135
				c0.59,0,1.16-0.24,1.59-0.66l23.19-22.91c0.92-0.91,0.24-2.89-1.05-2.9l-95.82,0C109.75,108.52,108.72,109.54,108.72,110.81z"/>
			<path class="st0" d="M207.27,258.71L207.27,258.71L111,258.64c-1.36,0-2.47-1.11-2.47-2.47V110.81c0-0.66,0.26-1.28,0.73-1.75
				c0.47-0.46,1.08-0.72,1.74-0.72c0,0,0.01,0,0.01,0h95.81c0.63,0,1.2,0.44,1.49,1.13c0.26,0.63,0.26,1.52-0.31,2.08l-23.19,22.91
				c-0.46,0.45-1.07,0.71-1.71,0.71l-47.16,0.39c-1.15,0.01-2.08,0.95-2.08,2.1v34.21c0,0.66-0.25,1.27-0.71,1.74l-9.98,10.07
				c-0.81,0.82-0.81,2.14,0,2.96l9.98,10.07c0.46,0.46,0.71,1.08,0.71,1.74v30.79c0,0.56,0.22,1.09,0.62,1.49
				c0.4,0.39,0.92,0.61,1.48,0.61c0,0,0.01,0,0.02,0l46.86-0.36c0.01,0,0.01,0,0.02,0c0.66,0,1.3,0.27,1.76,0.74l23.82,24.2
				c0.47,0.48,0.6,1.16,0.34,1.78C208.52,258.33,207.94,258.71,207.27,258.71z M111,108.71c-0.56,0-1.08,0.22-1.48,0.61
				c-0.4,0.4-0.62,0.93-0.62,1.49v145.36c0,1.16,0.94,2.1,2.1,2.1l96.27,0.07h0c0.52,0,0.96-0.3,1.16-0.77s0.1-1-0.26-1.37
				l-23.82-24.2c-0.39-0.4-0.94-0.63-1.5-0.63c0,0-0.01,0-0.02,0l-46.86,0.36c-0.01,0-0.01,0-0.02,0c-0.66,0-1.27-0.25-1.74-0.72
				c-0.47-0.47-0.73-1.09-0.73-1.75v-30.79c0-0.56-0.22-1.08-0.61-1.48l-9.98-10.07c-0.95-0.96-0.95-2.52,0-3.48l9.98-10.07
				c0.39-0.4,0.61-0.92,0.61-1.48v-34.21c0-1.35,1.1-2.46,2.45-2.47l47.16-0.39c0.55-0.01,1.07-0.22,1.46-0.61l23.19-22.91
				c0.45-0.44,0.44-1.16,0.23-1.68c-0.18-0.43-0.57-0.9-1.15-0.9H111C111.01,108.71,111.01,108.71,111,108.71z"/>
		</g>
	</g>
</g>
</svg>
